#N canvas 497 103 679 590 10;
#X declare -lib mrpeach;
#X obj 211 555 dac~;
#X obj 218 473 *~ 0 1;
#X obj 134 435 click~ 10;
#X obj 144 370 tgl 15 0 empty empty empty 17 7 0 10 -262144 -1 -1 0
1;
#X obj 134 406 metro 200;
#X obj 179 141 unpack 0 0 0 0;
#X floatatom 197 384 5 0 0 0 - - -;
#X obj 185 197 / 3500;
#X obj 185 222 + 1;
#X obj 185 246 / 2;
#X msg 185 272 \$1 100;
#X obj 185 299 line;
#X obj 252 223 + 1;
#X obj 252 248 / 2;
#X msg 252 271 \$1 100;
#X obj 252 298 line;
#X floatatom 262 365 5 0 0 0 - - -;
#X obj 252 197 / 3000;
#X obj 252 329 / 3;
#X obj 247 522 freeverb~;
#X msg 402 49 roomsize \$1;
#X msg 402 94 damping \$1;
#X msg 402 138 width \$1;
#X msg 402 182 wet \$1;
#X msg 402 226 dry \$1;
#X obj 414 203 hsl 60 18 0 1 0 1 empty empty dry 2 9 1 12 -225271 -1
-1 3400 0;
#X obj 414 159 hsl 60 18 0 1 0 1 empty empty wet 2 9 1 12 -225271 -1
-1 3100 0;
#X obj 414 115 hsl 60 18 0 1 0 1 empty empty width 2 9 1 12 -262131
-1 -1 2800 0;
#X obj 414 71 hsl 60 18 0 2 0 1 empty empty damping 2 9 1 12 -261689
-1 -1 4300 0;
#X obj 414 26 hsl 60 18 0.11 1.1 0 1 empty empty roomsize 2 9 1 12
-261689 -1 -1 3800 0;
#X floatatom 384 30 3 0 0 0 - - -;
#X floatatom 384 75 3 0 0 0 - - -;
#X floatatom 384 120 3 0 0 0 - - -;
#X floatatom 384 163 3 0 0 0 - - -;
#X floatatom 384 207 3 0 0 0 - - -;
#X obj 185 356 + 1;
#X obj 185 328 * 600;
#X obj 42 45 import mrpeach;
#X obj 179 61 udpreceive 8082;
#X obj 179 87 unpackOSC;
#X obj 179 114 routeOSC /touch;
#X connect 1 0 19 0;
#X connect 2 0 1 0;
#X connect 3 0 4 0;
#X connect 4 0 2 0;
#X connect 5 1 7 0;
#X connect 5 2 17 0;
#X connect 7 0 8 0;
#X connect 8 0 9 0;
#X connect 9 0 10 0;
#X connect 10 0 11 0;
#X connect 11 0 36 0;
#X connect 12 0 13 0;
#X connect 13 0 14 0;
#X connect 14 0 15 0;
#X connect 15 0 18 0;
#X connect 17 0 12 0;
#X connect 18 0 1 1;
#X connect 18 0 16 0;
#X connect 19 0 0 0;
#X connect 19 0 0 1;
#X connect 20 0 19 0;
#X connect 21 0 19 0;
#X connect 22 0 19 0;
#X connect 23 0 19 0;
#X connect 24 0 19 0;
#X connect 25 0 24 0;
#X connect 25 0 34 0;
#X connect 26 0 23 0;
#X connect 26 0 33 0;
#X connect 27 0 22 0;
#X connect 27 0 32 0;
#X connect 28 0 21 0;
#X connect 28 0 31 0;
#X connect 29 0 20 0;
#X connect 29 0 30 0;
#X connect 35 0 4 1;
#X connect 35 0 6 0;
#X connect 36 0 35 0;
#X connect 38 0 39 0;
#X connect 39 0 40 0;
#X connect 40 0 5 0;
